# xmcd
#
# Track frame offsets:
#	150
#	23315
#	40102
#	56455
#	70712
#	84290
#	98707
#	118030
#	131522
#	146527
#	160857
#
# Disc length: 2407 seconds
#
# Revision: 1
# Processed by: cddbd v1.5.1PL2 Copyright (c) Steve Scherf et al.
# Submitted via: audiograbber 1.83.01
#
DISCID=7e09650b
DTITLE=стахгс аццекопоукос   - ле паидеуеис 
DYEAR=1996
DGENRE=каийа
TTITLE0=ле паидеуеис
TTITLE1=ма лахеис пяыта
TTITLE2=паки
TTITLE3=фгсале лафи
TTITLE4=лгм йоккас ста пакиа
TTITLE5=циати ле ецйатекеиьес
TTITLE6=паяата ле
TTITLE7=ста дуо соу веикг
TTITLE8=пеяпатгсале се адеиоус дяолоус
TTITLE9=лг лоу кес
TTITLE10=ояистийа
EXTD=
EXTT0=
EXTT1=
EXTT2=
EXTT3=
EXTT4=
EXTT5=
EXTT6=
EXTT7=
EXTT8=
EXTT9=
EXTT10=
PLAYORDER=
